<?xml version="1.0" encoding="UTF-8" standalone="no"?>
<!-- Created with Inkscape (http://www.inkscape.org/) -->

<svg
   xmlns:dc="http://purl.org/dc/elements/1.1/"
   xmlns:cc="http://creativecommons.org/ns#"
   xmlns:rdf="http://www.w3.org/1999/02/22-rdf-syntax-ns#"
   xmlns:svg="http://www.w3.org/2000/svg"
   xmlns="http://www.w3.org/2000/svg"
   xmlns:sodipodi="http://sodipodi.sourceforge.net/DTD/sodipodi-0.dtd"
   xmlns:inkscape="http://www.inkscape.org/namespaces/inkscape"
   width="1024"
   height="1024"
   viewBox="0 0 270.93332 270.93332"
   version="1.1"
   id="svg8"
   inkscape:version="0.92.5 (2060ec1f9f, 2020-04-08)"
   sodipodi:docname="drawing.svg">
  <defs
     id="defs2" />
  <sodipodi:namedview
     id="base"
     pagecolor="#ffffff"
     bordercolor="#666666"
     borderopacity="1.0"
     inkscape:pageopacity="0.0"
     inkscape:pageshadow="2"
     inkscape:zoom="0.35"
     inkscape:cx="405.71429"
     inkscape:cy="317.14286"
     inkscape:document-units="mm"
     inkscape:current-layer="layer1"
     showgrid="false"
     inkscape:window-width="1528"
     inkscape:window-height="836"
     inkscape:window-x="72"
     inkscape:window-y="27"
     inkscape:window-maximized="1"
     units="px" />
  <metadata
     id="metadata5">
    <rdf:RDF>
      <cc:Work
         rdf:about="">
        <dc:format>image/svg+xml</dc:format>
        <dc:type
           rdf:resource="http://purl.org/dc/dcmitype/StillImage" />
        <dc:title></dc:title>
      </cc:Work>
    </rdf:RDF>
  </metadata>
  <g
     inkscape:label="Layer 1"
     inkscape:groupmode="layer"
     id="layer1"
     transform="translate(0,-26.06667)">
    <g
       id="g3824"
       transform="matrix(0.74888391,0,0,0.75097655,-170.95576,64.484722)">
      <path
         style="fill:#fefefe;stroke-width:0.35277775"
         d="m 228.34802,232.06369 c 0,-43.17118 0.0738,-78.49305 0.16398,-78.49305 0.4771,0 1.05538,1.89206 1.29386,4.23333 0.45867,4.50291 1.029,7.91962 1.38068,8.27129 0.18506,0.18507 0.33648,0.95017 0.33648,1.70023 0,0.75007 0.19054,1.7105 0.42342,2.13431 0.23287,0.42381 0.5393,1.56431 0.68094,2.53445 0.29583,2.02621 0.77331,4.08353 1.33049,5.73263 0.94751,2.8044 1.17427,3.50863 1.47669,4.58612 0.17698,0.63059 0.4666,1.66246 0.64359,2.29305 0.60917,2.17041 2.98182,8.6865 3.59497,9.87299 0.17411,0.33692 0.31657,0.83999 0.31657,1.11794 0,0.27795 0.22571,0.95479 0.50159,1.50409 0.27587,0.5493 1.01337,2.18936 1.63889,3.64456 0.62551,1.45521 1.59798,3.64757 2.16104,4.87192 0.56306,1.22435 1.17455,2.57372 1.35888,2.99861 0.32386,0.74655 0.46675,1.01817 1.33426,2.53642 0.22173,0.38805 0.64193,1.26118 0.93377,1.94027 0.29185,0.6791 0.68586,1.47285 0.87559,1.76389 0.18973,0.29105 1.02425,1.71979 1.8545,3.175 0.83024,1.45521 1.6689,2.90212 1.86369,3.21536 0.1948,0.31324 0.71674,1.18636 1.15987,1.94028 0.44313,0.75391 1.27388,2.08513 1.84612,2.95825 0.57223,0.87313 1.16216,1.8288 1.31097,2.12373 0.1488,0.29493 1.65572,2.51743 3.34871,4.93889 6.53645,9.34902 10.61017,14.22697 18.94886,22.68972 15.41339,15.6427 30.04305,26.39536 48.88742,35.93177 2.52572,1.27818 5.62134,2.75668 6.87916,3.28556 3.77014,1.58525 5.40851,2.30581 6.46067,2.84139 0.5493,0.27961 1.294,0.50838 1.65488,0.50838 0.36088,0 0.74518,0.14407 0.85401,0.32015 0.10882,0.17608 1.11038,0.59567 2.22568,0.93241 1.1153,0.33674 2.34532,0.80446 2.73337,1.03937 0.38806,0.23491 1.18181,0.51492 1.76389,0.62225 1.15951,0.21381 4.97211,1.47028 6.80294,2.24195 0.63718,0.26857 1.56042,0.48832 2.05167,0.48832 0.49124,0 1.23992,0.18799 1.66372,0.41779 0.78187,0.42393 2.5191,0.8177 5.70945,1.29417 0.97014,0.14488 2.11064,0.45395 2.53445,0.68685 0.4238,0.23287 1.34705,0.42341 2.05166,0.42341 0.70461,0 1.60469,0.17318 2.00018,0.38484 0.71366,0.38192 3.67763,0.82709 8.75954,1.31558 2.32326,0.22331 4.23333,0.81467 4.23333,1.31061 0,0.0902 -35.55999,0.16397 -79.02221,0.16397 h -79.02222 z m 203.19999,78.32908 c 0,-0.49594 1.91007,-1.0873 4.23333,-1.31061 5.08191,-0.48849 8.04588,-0.93366 8.75954,-1.31558 0.39549,-0.21166 1.29557,-0.38484 2.00018,-0.38484 0.70461,0 1.62786,-0.19054 2.05166,-0.42341 0.42381,-0.2329 1.56431,-0.54197 2.53445,-0.68685 3.19035,-0.47647 4.92758,-0.87024 5.70945,-1.29417 0.4238,-0.2298 1.17248,-0.41779 1.66372,-0.41779 0.49125,0 1.41449,-0.21975 2.05167,-0.48832 1.83083,-0.77167 5.64343,-2.02814 6.80294,-2.24195 0.58208,-0.10733 1.37583,-0.38734 1.76389,-0.62225 0.38805,-0.23491 1.61807,-0.70263 2.73337,-1.03937 1.1153,-0.33674 2.11686,-0.75633 2.22568,-0.93241 0.10883,-0.17608 0.49313,-0.32015 0.85401,-0.32015 0.36088,0 1.10558,-0.22877 1.65488,-0.50838 1.03522,-0.52696 2.66855,-1.24635 6.29039,-2.77056 4.78052,-2.01182 18.18284,-9.12525 21.57871,-11.45314 0.54949,-0.37667 2.66594,-1.77803 4.70323,-3.11413 9.89003,-6.48609 18.49513,-13.62812 28.60935,-23.74507 8.24789,-8.25011 14.40294,-15.54497 20.26815,-24.02147 2.95311,-4.26789 3.03939,-4.39924 4.31569,-6.57066 0.44313,-0.75391 1.274,-2.08513 1.84637,-2.95825 0.57237,-0.87313 1.15389,-1.82563 1.29227,-2.11667 0.13837,-0.29104 1.11003,-2.01792 2.15924,-3.83751 1.04922,-1.81959 2.13156,-3.80396 2.40522,-4.40972 0.46824,-1.03646 0.68146,-1.44375 1.54622,-2.95346 0.19449,-0.33955 0.52196,-1.01424 0.72772,-1.49931 0.20576,-0.48507 0.70421,-1.59632 1.10767,-2.46944 0.40346,-0.87313 0.93269,-2.06375 1.17607,-2.64583 0.5706,-1.36471 2.2191,-5.005 2.84859,-6.2904 0.26901,-0.5493 0.4891,-1.22614 0.4891,-1.50409 0,-0.27795 0.14246,-0.78102 0.31657,-1.11794 0.29772,-0.57612 0.63712,-1.44786 1.88669,-4.84591 1.38947,-3.77851 1.95561,-5.61815 2.27981,-7.40833 0.10544,-0.58208 0.35235,-1.25967 0.54871,-1.50575 0.19632,-0.24609 0.48574,-1.03984 0.64311,-1.76389 0.15738,-0.72406 0.55139,-2.18959 0.87556,-3.25675 0.32417,-1.06715 0.69737,-2.73402 0.82938,-3.70416 0.13201,-0.97014 0.43053,-2.11064 0.66344,-2.53445 0.23286,-0.42381 0.4234,-1.34705 0.4234,-2.05166 0,-0.70461 0.16506,-1.58953 0.36678,-1.96648 0.39769,-0.74304 0.9247,-3.89863 1.35079,-8.08769 0.23809,-2.34116 0.81626,-4.23333 1.29346,-4.23333 0.0902,0 0.16397,35.32187 0.16397,78.49305 v 78.49305 h -79.02222 c -43.46222,0 -79.02221,-0.0738 -79.02221,-0.16397 z M 228.34802,27.805367 v -78.49305 h 78.49305 c 43.17118,0 78.49305,0.07379 78.49305,0.163977 0,0.449366 -1.73992,0.980803 -4.17162,1.274171 -5.13852,0.619925 -6.99498,0.941026 -7.73722,1.338259 -0.40963,0.219226 -1.35052,0.404218 -2.09088,0.411094 -0.74036,0.0069 -1.74299,0.239375 -2.22806,0.516665 -0.48507,0.277291 -1.34692,0.509791 -1.91523,0.516666 -1.03964,0.01258 -1.68414,0.168132 -5.01128,1.209491 -0.99618,0.311795 -2.06236,0.566899 -2.36928,0.566899 -0.30693,0 -1.07937,0.222868 -1.71654,0.495261 -0.63717,0.272394 -1.87287,0.685801 -2.746,0.918682 -0.87312,0.232882 -1.98437,0.586195 -2.46944,0.78514 -0.48507,0.198946 -1.3582,0.48885 -1.94028,0.644233 -0.58208,0.155383 -2.40771,0.779038 -4.05694,1.385902 -1.64924,0.606863 -3.39549,1.241034 -3.88056,1.409268 -7.01084,2.431538 -23.62616,10.733165 -29.56584,14.772184 -1.19071,0.809691 -3.29872,2.154934 -5.35916,3.42 -2.7397,1.682119 -10.90923,7.883514 -16.05139,12.1844284 -4.78046,3.9983865 -17.08617,16.0655377 -19.82337,19.4390736 -0.73881,0.910562 -2.61707,3.212437 -4.1739,5.115278 -4.2995,5.255062 -11.10411,14.593269 -11.10411,15.238566 0,0.168071 -0.26272,0.523462 -0.58382,0.789757 -0.32109,0.266291 -0.80328,0.960416 -1.07151,1.542499 -0.26824,0.582084 -0.94591,1.772709 -1.50593,2.645833 -0.56002,0.873125 -1.44497,2.38125 -1.96657,3.351389 -0.52159,0.970139 -1.15766,2.002303 -1.41348,2.293701 -0.25583,0.291398 -0.63456,0.926398 -0.84163,1.411111 -0.20707,0.484713 -0.53733,1.119424 -0.73391,1.410466 -0.19658,0.291041 -0.5962,1.084791 -0.88805,1.763888 -0.29184,0.679098 -0.67555,1.472847 -0.85269,1.763889 -0.17713,0.291042 -0.41464,0.767292 -0.52779,1.058333 -0.11315,0.291042 -0.50987,1.005417 -0.88161,1.5875 -0.37174,0.582084 -0.68749,1.316708 -0.70167,1.6325 -0.0142,0.315789 -0.26391,0.77179 -0.55495,1.013333 -0.29104,0.241544 -0.52917,0.667315 -0.52917,0.946164 0,0.278847 -0.635,1.837447 -1.41111,3.463558 -0.77611,1.626112 -1.41111,3.173811 -1.41111,3.439329 0,0.265519 -0.23308,0.790918 -0.51795,1.16755 -0.28487,0.376633 -0.52299,0.964756 -0.52916,1.306936 -0.006,0.34218 -0.15368,0.897805 -0.32779,1.234722 -0.44336,0.857945 -1.33922,3.221676 -2.83939,7.49174 -0.5953,1.694476 -1.09855,3.500423 -1.32712,4.7625 -0.10542,0.582083 -0.35233,1.259674 -0.54868,1.505754 -0.19635,0.246084 -0.48577,1.039834 -0.64314,1.763889 -0.15738,0.724058 -0.55137,2.189593 -0.87554,3.256745 -0.32417,1.067153 -0.69739,2.734028 -0.8294,3.704167 -0.132,0.970138 -0.43054,2.110641 -0.66341,2.534447 -0.23288,0.423806 -0.42342,1.384243 -0.42342,2.134305 0,0.750062 -0.14696,1.51456 -0.32658,1.698886 -0.36576,0.375356 -1.02871,4.268025 -1.4089,8.272634 -0.22179,2.33628 -0.7934,4.23334 -1.27554,4.23334 -0.0902,0 -0.16398,-35.321875 -0.16398,-78.493053 z m 360.56204,77.787493 c -0.27827,-0.48507 -0.62724,-2.07257 -0.77547,-3.52778 -0.45865,-4.502904 -1.02899,-7.919616 -1.38067,-8.27129 -0.18507,-0.185067 -0.33648,-0.950168 -0.33648,-1.70023 0,-0.750062 -0.19054,-1.710499 -0.4234,-2.134305 -0.23291,-0.423806 -0.53143,-1.564309 -0.66344,-2.534447 -0.13201,-0.970139 -0.50521,-2.637014 -0.82938,-3.704167 -0.32417,-1.067152 -0.72104,-2.54836 -0.88191,-3.291568 -0.1609,-0.743211 -0.47025,-1.529023 -0.68746,-1.74625 -0.21724,-0.21723 -0.39497,-0.767969 -0.39497,-1.223867 0,-0.455898 -0.21741,-1.257586 -0.48312,-1.781528 -0.26572,-0.523942 -0.73089,-1.905119 -1.03371,-3.069286 -0.30282,-1.164167 -0.89503,-2.989791 -1.316,-4.056944 -0.42097,-1.067153 -0.84788,-2.299811 -0.94869,-2.739242 -0.1008,-0.43943 -0.32307,-0.885359 -0.49393,-0.990956 -0.17086,-0.105601 -0.31066,-0.487264 -0.31066,-0.848145 0,-0.360881 -0.22009,-1.105574 -0.4891,-1.654873 -1.54025,-3.145116 -2.34351,-4.909245 -2.33864,-5.13613 0.003,-0.141263 -0.55616,-1.456549 -1.24266,-2.922856 -0.6865,-1.466306 -1.4005,-3.017601 -1.58666,-3.447323 -0.18616,-0.429718 -0.4976,-1.05912 -0.69209,-1.398668 -0.88803,-1.550342 -1.08145,-1.928407 -1.57928,-3.086806 -0.29184,-0.679097 -0.68586,-1.472847 -0.87559,-1.763888 -0.18973,-0.291042 -1.02425,-1.719792 -1.8545,-3.175 -0.83024,-1.455208 -1.6689,-2.902119 -1.86369,-3.215358 -0.1948,-0.313238 -0.73036,-1.265738 -1.19015,-2.116666 -0.45978,-0.850928 -1.3726,-2.301572 -2.02847,-3.223652 -0.65587,-0.922083 -1.1925,-1.747915 -1.1925,-1.835181 0,-0.08727 -0.75406,-1.213372 -1.67569,-2.50245 -0.92163,-1.289079 -1.91141,-2.685747 -2.1995,-3.103707 -1.4192,-2.058949 -4.619,-6.332199 -6.52142,-8.709184 -4.03331,-5.03944 -6.03034,-7.2433841 -12.88672,-14.2219384 -5.89858,-6.0036953 -9.4718,-9.2402336 -17.09864,-15.4875646 -2.20059,-1.802563 -10.49903,-7.720891 -12.73762,-9.084295 -1.11502,-0.679097 -2.59706,-1.617956 -3.29344,-2.086354 -6.16982,-4.149973 -22.77062,-12.461879 -29.66474,-14.852936 -0.48507,-0.168234 -2.23132,-0.802405 -3.88056,-1.409268 -1.64923,-0.606864 -3.47486,-1.230519 -4.05694,-1.385902 -0.58208,-0.155383 -1.45521,-0.445287 -1.94028,-0.644233 -0.48507,-0.198945 -1.59632,-0.552258 -2.46944,-0.78514 -0.87313,-0.232881 -2.10883,-0.646288 -2.746,-0.918682 -0.63717,-0.272393 -1.40961,-0.495261 -1.71654,-0.495261 -0.30692,0 -1.3731,-0.255104 -2.36928,-0.566899 -3.29769,-1.032143 -3.96976,-1.19699 -4.88,-1.19699 -0.49611,0 -1.47193,-0.238125 -2.16849,-0.529167 -0.69656,-0.291041 -1.75826,-0.529166 -2.35933,-0.529166 -0.60107,0 -1.40127,-0.165058 -1.77822,-0.366796 -0.70858,-0.37922 -3.62347,-0.877217 -7.91131,-1.351616 -1.35819,-0.150268 -2.86632,-0.499787 -3.35138,-0.776707 -0.7663,-0.43747 9.40679,-0.51516 77.58092,-0.592469 43.15458,-0.04894 78.51649,-0.03536 78.58204,0.03018 0.0655,0.06554 0.0791,35.427447 0.0303,78.582026 -0.0775,68.351466 -0.15417,78.349215 -0.59496,77.580925 z"
         id="path3840"
         inkscape:connector-curvature="0" />
      <path
         style="fill:#f5f5f5;stroke-width:0.35277775"
         d="m 385.70864,309.92086 c -0.50804,-0.35366 -1.95227,-0.69999 -3.52777,-0.84593 -4.95208,-0.45872 -8.05852,-0.92153 -8.78129,-1.30835 -0.39549,-0.21166 -1.29557,-0.38484 -2.00018,-0.38484 -0.70461,0 -1.62786,-0.19054 -2.05166,-0.42341 -0.42381,-0.2329 -1.56431,-0.54197 -2.53445,-0.68685 -3.19035,-0.47647 -4.92758,-0.87024 -5.70945,-1.29417 -0.4238,-0.2298 -1.17248,-0.41779 -1.66372,-0.41779 -0.49125,0 -1.41449,-0.21975 -2.05167,-0.48832 -1.83083,-0.77167 -5.64343,-2.02814 -6.80294,-2.24195 -0.58208,-0.10733 -1.37583,-0.38734 -1.76389,-0.62225 -0.38805,-0.23491 -1.61807,-0.70263 -2.73337,-1.03937 -1.1153,-0.33674 -2.11686,-0.75633 -2.22568,-0.93241 -0.10883,-0.17608 -0.49313,-0.32015 -0.85401,-0.32015 -0.36088,0 -1.10558,-0.22877 -1.65488,-0.50838 -1.05216,-0.53558 -2.69053,-1.25614 -6.46067,-2.84139 -1.25782,-0.52888 -4.35344,-2.00738 -6.87916,-3.28556 -18.84437,-9.53641 -33.47403,-20.28907 -48.88742,-35.93177 -8.35079,-8.47503 -12.44326,-13.37695 -18.94886,-22.69678 -3.25383,-4.66139 -3.32678,-4.77136 -4.58941,-6.91953 -0.44314,-0.75391 -1.27389,-2.08513 -1.84612,-2.95825 -0.57223,-0.87313 -1.16217,-1.82794 -1.31097,-2.12181 -0.38028,-0.75101 -3.22062,-5.7056 -3.63736,-6.34486 -0.18973,-0.29104 -0.58374,-1.08479 -0.87559,-1.76389 -0.49783,-1.15839 -0.69125,-1.53646 -1.57928,-3.0868 -0.19449,-0.33955 -0.50443,-0.965 -0.68875,-1.38989 -0.18433,-0.42489 -0.79582,-1.77426 -1.35888,-2.99861 -0.56306,-1.22435 -1.53553,-3.41671 -2.16104,-4.87192 -0.62552,-1.4552 -1.36302,-3.09526 -1.63889,-3.64456 -0.27588,-0.5493 -0.50159,-1.22614 -0.50159,-1.50409 0,-0.27795 -0.14246,-0.78102 -0.31657,-1.11794 -0.58745,-1.13677 -3.01132,-7.79353 -3.59497,-9.87299 -0.17699,-0.63059 -0.46661,-1.66246 -0.64359,-2.29305 -0.30242,-1.07749 -0.52918,-1.78172 -1.47669,-4.58612 -0.55718,-1.6491 -1.03466,-3.70642 -1.33049,-5.73263 -0.14164,-0.97014 -0.44807,-2.11064 -0.68094,-2.53445 -0.23288,-0.42381 -0.42342,-1.38424 -0.42342,-2.13431 0,-0.75006 -0.15142,-1.51516 -0.33648,-1.70023 -0.35561,-0.3556 -0.93232,-3.83279 -1.38014,-8.32139 -0.15072,-1.5106 -0.53045,-3.09499 -0.86368,-3.60356 -0.54259,-0.8281 -0.5947,-2.94999 -0.5947,-24.21578 0,-21.2658 0.0521,-23.38769 0.5947,-24.21579 0.34065,-0.51989 0.70178,-2.05932 0.84536,-3.60356 0.37287,-4.010534 1.03832,-7.942986 1.40836,-8.322734 0.17962,-0.184326 0.32658,-0.948824 0.32658,-1.698886 0,-0.750062 0.19054,-1.710499 0.42342,-2.134305 0.23287,-0.423806 0.53141,-1.564309 0.66341,-2.534447 0.13201,-0.970139 0.50523,-2.637014 0.8294,-3.704167 0.32417,-1.067152 0.71816,-2.532687 0.87554,-3.256745 0.15737,-0.724055 0.44679,-1.517805 0.64314,-1.763889 0.19635,-0.24608 0.44326,-0.923671 0.54868,-1.505754 0.22857,-1.262077 0.73182,-3.068024 1.32712,-4.7625 1.50017,-4.270064 2.39603,-6.633795 2.83939,-7.49174 0.17411,-0.336917 0.32161,-0.892542 0.32779,-1.234722 0.006,-0.34218 0.24429,-0.930303 0.52916,-1.306936 0.28487,-0.376632 0.51795,-0.902031 0.51795,-1.16755 0,-0.265518 0.635,-1.813217 1.41111,-3.439329 0.77611,-1.626111 1.41111,-3.184711 1.41111,-3.463558 0,-0.278849 0.23813,-0.70462 0.52917,-0.946164 0.29104,-0.241543 0.54077,-0.697544 0.55495,-1.013333 0.0142,-0.315792 0.32993,-1.050416 0.70167,-1.6325 0.37174,-0.582083 0.76846,-1.296458 0.88161,-1.5875 0.11315,-0.291041 0.35066,-0.767291 0.52779,-1.058333 0.17714,-0.291042 0.56085,-1.084791 0.85269,-1.763889 0.29185,-0.679097 0.69147,-1.472847 0.88805,-1.763888 0.19658,-0.291042 0.52684,-0.925753 0.73391,-1.410466 0.20707,-0.484713 0.5858,-1.119713 0.84163,-1.411111 0.25582,-0.291398 0.89189,-1.323562 1.41348,-2.293701 0.5216,-0.970139 1.40655,-2.478264 1.96657,-3.351389 0.56002,-0.873124 1.23769,-2.063749 1.50593,-2.645833 0.26823,-0.582083 0.75042,-1.276208 1.07151,-1.542499 0.3211,-0.266295 0.58382,-0.621686 0.58382,-0.789757 0,-0.645297 6.80461,-9.983504 11.10411,-15.238566 1.55683,-1.902841 3.43509,-4.204716 4.1739,-5.115278 2.7372,-3.3735359 15.04291,-15.4406871 19.82337,-19.4390736 5.14216,-4.3009144 13.31169,-10.5023094 16.05139,-12.1844284 2.06044,-1.265066 4.16845,-2.610309 5.35916,-3.42 5.93968,-4.039019 22.555,-12.340646 29.56584,-14.772184 0.48507,-0.168234 2.23132,-0.802405 3.88056,-1.409268 1.64923,-0.606864 3.47486,-1.230519 4.05694,-1.385902 0.58208,-0.155383 1.45521,-0.445287 1.94028,-0.644233 0.48507,-0.198945 1.59632,-0.552258 2.46944,-0.78514 0.87313,-0.232881 2.10883,-0.646288 2.746,-0.918682 0.63717,-0.272393 1.40961,-0.495261 1.71654,-0.495261 0.30692,0 1.3731,-0.255104 2.36928,-0.566899 3.32714,-1.041359 3.97164,-1.196913 5.01128,-1.209491 0.56831,-0.0069 1.43016,-0.239375 1.91523,-0.516666 0.48507,-0.27729 1.4877,-0.50979 2.22806,-0.516665 0.74036,-0.0069 1.68125,-0.191868 2.09088,-0.411094 0.74541,-0.398928 2.61419,-0.721182 7.79375,-1.343958 1.52024,-0.18279 3.14184,-0.579868 3.60356,-0.882397 0.73898,-0.484197 3.63006,-0.550052 24.14764,-0.550052 21.17932,0 23.39028,0.05381 24.20735,0.589174 0.49455,0.324046 2.03678,0.713251 3.42717,0.864901 4.29692,0.468667 7.25419,0.971127 7.96984,1.354129 0.37695,0.201738 1.17715,0.366796 1.77822,0.366796 0.60107,0 1.66277,0.238125 2.35933,0.529166 0.69656,0.291042 1.67238,0.529167 2.16849,0.529167 0.91024,0 1.58231,0.164847 4.88,1.19699 0.99618,0.311795 2.06236,0.566899 2.36928,0.566899 0.30693,0 1.07937,0.222868 1.71654,0.495261 0.63717,0.272394 1.87287,0.685801 2.746,0.918682 0.87312,0.232882 1.98437,0.586195 2.46944,0.78514 0.48507,0.198946 1.3582,0.48885 1.94028,0.644233 0.58208,0.155383 2.40771,0.779038 4.05694,1.385902 1.64924,0.606863 3.39549,1.241034 3.88056,1.409268 6.89412,2.391057 23.49492,10.702963 29.66474,14.852936 0.69638,0.468398 2.17842,1.407257 3.29344,2.086354 2.23859,1.363404 10.53703,7.281732 12.73762,9.084295 7.62684,6.247331 11.20006,9.4838693 17.09864,15.4875646 6.85638,6.9785543 8.85341,9.1824984 12.88672,14.2219384 1.90242,2.376985 5.10222,6.650235 6.52142,8.709184 0.28809,0.41796 1.27787,1.814628 2.1995,3.103707 0.92163,1.289078 1.67569,2.41518 1.67569,2.50245 0,0.08727 0.53663,0.913098 1.1925,1.835181 0.65587,0.92208 1.56869,2.372724 2.02847,3.223652 0.45979,0.850928 0.99535,1.803428 1.19015,2.116666 0.19479,0.313239 1.03345,1.76015 1.86369,3.215358 0.83025,1.455208 1.66477,2.883958 1.8545,3.175 0.18973,0.291041 0.58375,1.084791 0.87559,1.763888 0.5286,1.230002 0.74632,1.658497 1.52364,2.998611 0.22509,0.388056 0.56157,1.057145 0.74773,1.486863 0.18616,0.429722 0.90016,1.981017 1.58666,3.447323 0.6865,1.466307 1.2457,2.781593 1.24266,2.922856 -0.005,0.226885 0.79839,1.991014 2.33864,5.13613 0.26901,0.549299 0.4891,1.293992 0.4891,1.654873 0,0.360881 0.1398,0.742544 0.31066,0.848145 0.17086,0.105597 0.39313,0.551526 0.49393,0.990956 0.10081,0.439431 0.52772,1.672089 0.94869,2.739242 0.42097,1.067153 1.01318,2.892777 1.316,4.056944 0.30282,1.164167 0.76799,2.545344 1.03371,3.069286 0.26571,0.523942 0.48312,1.32563 0.48312,1.781528 0,0.455898 0.17773,1.006637 0.39497,1.223867 0.21721,0.217227 0.52656,1.003039 0.68746,1.74625 0.16087,0.743208 0.55774,2.224416 0.88191,3.291568 0.32417,1.067153 0.69737,2.734028 0.82938,3.704167 0.13201,0.970138 0.43053,2.110641 0.66344,2.534447 0.23286,0.423806 0.4234,1.384243 0.4234,2.134305 0,0.750062 0.15141,1.515163 0.33648,1.70023 0.3556,0.355604 0.93232,3.832796 1.38014,8.32139 0.1507,1.51061 0.53047,3.09499 0.86367,3.60356 0.5426,0.8281 0.59471,2.94999 0.59471,24.21579 0,21.26579 -0.0521,23.38768 -0.59471,24.21578 -0.33338,0.50882 -0.71272,2.09221 -0.86325,3.60356 -0.41705,4.18604 -0.94802,7.38622 -1.35026,8.13779 -0.20172,0.37695 -0.36678,1.26187 -0.36678,1.96648 0,0.70461 -0.19054,1.62785 -0.4234,2.05166 -0.23291,0.42381 -0.53143,1.56431 -0.66344,2.53445 -0.13201,0.97014 -0.50521,2.63701 -0.82938,3.70416 -0.32417,1.06716 -0.71818,2.53269 -0.87556,3.25675 -0.15737,0.72405 -0.44679,1.5178 -0.64311,1.76389 -0.19636,0.24608 -0.44327,0.92367 -0.54871,1.50575 -0.31905,1.76171 -0.82123,3.40282 -2.24004,7.32014 -0.96791,2.67244 -1.6176,4.33642 -1.92646,4.9341 -0.17411,0.33692 -0.31657,0.83999 -0.31657,1.11794 0,0.27795 -0.22009,0.95479 -0.4891,1.50409 -0.62949,1.2854 -2.27799,4.92569 -2.84859,6.2904 -0.24338,0.58208 -0.77261,1.7727 -1.17607,2.64583 -0.40346,0.87312 -0.90191,1.98437 -1.10767,2.46944 -0.20576,0.48507 -0.53323,1.15976 -0.72772,1.49931 -0.86476,1.50971 -1.07798,1.917 -1.54622,2.95346 -0.27366,0.60576 -1.356,2.59013 -2.40522,4.40972 -1.04921,1.81959 -2.02087,3.54647 -2.15924,3.83751 -0.13838,0.29104 -0.7199,1.24354 -1.29227,2.11667 -0.57237,0.87312 -1.40324,2.20434 -1.84637,2.95825 -1.2763,2.17142 -1.36258,2.30277 -4.31569,6.57066 -5.86521,8.4765 -12.02026,15.77136 -20.26815,24.02147 -10.11422,10.11695 -18.71932,17.25898 -28.60935,23.74507 -2.03729,1.3361 -4.15374,2.73746 -4.70323,3.11413 -3.39587,2.32789 -16.79819,9.44132 -21.57871,11.45314 -3.62184,1.52421 -5.25517,2.2436 -6.29039,2.77056 -0.5493,0.27961 -1.294,0.50838 -1.65488,0.50838 -0.36088,0 -0.74518,0.14407 -0.85401,0.32015 -0.10882,0.17608 -1.11038,0.59567 -2.22568,0.93241 -1.1153,0.33674 -2.34532,0.80446 -2.73337,1.03937 -0.38806,0.23491 -1.18181,0.51492 -1.76389,0.62225 -1.15951,0.21381 -4.97211,1.47028 -6.80294,2.24195 -0.63718,0.26857 -1.56042,0.48832 -2.05167,0.48832 -0.49124,0 -1.23992,0.18799 -1.66372,0.41779 -0.78187,0.42393 -2.5191,0.8177 -5.70945,1.29417 -0.97014,0.14488 -2.11064,0.45395 -2.53445,0.68685 -0.4238,0.23287 -1.34705,0.42341 -2.05166,0.42341 -0.70461,0 -1.60469,0.17318 -2.00018,0.38484 -0.72217,0.38651 -3.82257,0.84868 -8.77671,1.30835 -1.56836,0.14552 -3.04963,0.50087 -3.60357,0.86445 -0.87154,0.57206 -2.57865,0.61602 -23.26615,0.59884 -20.40828,-0.0169 -22.39948,-0.0699 -23.18581,-0.61736 z m 28.13863,-79.38947 c 1.00968,-1.26258 -0.2353,-5.59062 -3.9228,-13.63715 -3.80432,-8.30144 -9.26414,-16.76462 -19.19919,-29.76039 -1.98941,-2.60229 -10.36878,-11.64739 -14.78359,-15.95814 -12.90907,-12.60477 -25.64687,-23.73379 -31.52979,-27.54757 -4.25174,-2.75632 -5.02104,-3.73532 -1.69034,-2.15111 1.41476,0.67291 2.81041,1.43364 3.10145,1.69049 0.29104,0.25686 1.71979,1.13714 3.175,1.95617 3.74135,2.10572 13.05662,8.68631 17.94982,12.68028 6.9834,5.70004 16.51582,14.40618 22.27155,20.341 7.9201,8.16654 18.05656,20.24715 22.00514,26.22566 0.83296,1.26118 2.29369,3.34968 3.24606,4.6411 0.95238,1.29143 2.19808,3.11705 2.76823,4.05695 0.57015,0.93989 2.04462,3.37577 3.2766,5.41306 1.23198,2.03729 2.48748,3.8917 2.79001,4.12091 0.73182,0.55446 1.46171,0.23187 2.03739,-0.90046 1.07005,-2.10474 2.92079,-10.46068 4.09363,-18.48246 0.59371,-4.06079 0.52188,-14.62954 -0.12525,-18.42826 -0.29749,-1.74625 -0.71679,-4.20688 -0.93178,-5.46806 -1.19741,-7.02403 -4.86095,-17.10025 -9.10674,-25.04722 -3.22048,-6.02786 -8.92975,-14.40188 -13.30105,-19.50918 -1.16417,-1.36017 -2.76831,-3.28173 -3.56477,-4.27013 -3.44929,-4.28053 -13.6228,-14.45967 -18.68877,-18.69909 -1.17986,-0.98736 -3.71986,-3.14603 -5.64445,-4.79704 -7.3852,-6.33542 -15.32138,-12.40705 -25.77138,-19.716581 -2.88448,-2.017627 -7.46702,-5.238485 -10.1834,-7.157462 C 337.68962,76.997706 329.58712,71.536844 319.7095,65.02342 301.62969,53.101377 291.33438,45.532301 283.09301,38.103109 c -2.29471,-2.068566 -3.13,-2.083111 -3.85867,-0.06719 -0.51082,1.413263 -1.9047,8.767441 -2.54082,13.405555 -2.14799,15.661579 -2.44775,18.987239 -2.70276,29.986109 -0.22364,9.645921 0.16758,20.471837 0.94339,26.105557 0.91925,6.67532 1.15703,8.13491 2.12122,13.02085 2.05703,10.42385 6.85643,24.26094 10.74545,30.98007 0.86776,1.49926 1.57775,2.82222 1.57775,2.93991 0,0.37957 4.53272,7.66266 6.35381,10.20917 0.97128,1.35819 2.14179,3.02506 2.60113,3.70416 0.45933,0.6791 1.25006,1.67764 1.75718,2.21897 0.50711,0.54135 1.77872,2.04947 2.82579,3.35139 3.46797,4.31205 11.53668,11.82988 17.67366,16.46702 14.33824,10.83407 30.44812,18.9122 51.48869,25.81849 4.434,1.4554 18.39185,7.19021 21.87925,8.98944 2.91044,1.50156 14.28543,5.7007 16.42326,6.06272 1.36358,0.23091 2.94998,-0.11875 3.46593,-0.76394 z m 37.30631,-3.37064 c 1.34367,-0.4653 4.18929,-1.58992 6.32359,-2.49917 2.13431,-0.90924 5.85471,-2.4447 8.26756,-3.41213 2.41286,-0.96744 4.84487,-1.99574 5.40447,-2.28512 0.55959,-0.28938 3.66544,-1.45354 6.90187,-2.58702 10.22871,-3.58234 18.59232,-7.38819 25.34118,-11.53146 10.02226,-6.15288 20.32877,-15.61261 25.78076,-23.66262 1.1527,-1.702 2.53261,-3.72954 3.06646,-4.50565 0.53385,-0.77611 2.22593,-3.95111 3.76017,-7.05556 2.93771,-5.94427 4.52607,-10.59858 6.32052,-18.52083 2.10246,-9.28204 2.2934,-11.40008 2.28983,-25.4 -0.002,-8.32354 -0.16036,-14.06137 -0.44753,-16.22777 -1.34791,-10.168645 -2.63489,-17.004473 -3.42983,-18.217714 -0.85153,-1.299591 -1.78093,-1.005963 -4.34449,1.372574 -4.3495,4.035583 -9.20671,7.54625 -24.45736,17.67717 -3.75574,2.49492 -7.46361,4.96369 -8.23972,5.48617 -0.77611,0.52249 -3.15736,2.11865 -5.29167,3.54703 -2.1343,1.42838 -4.6743,3.17839 -5.64444,3.88892 -2.18715,1.60186 -6.07926,4.44037 -10.1854,7.42817 -1.72141,1.25257 -4.02328,2.99291 -5.11527,3.86743 -1.09199,0.87452 -2.54107,2.00659 -3.22017,2.51572 -4.05702,3.04157 -15.42958,13.83853 -20.47526,19.43894 -3.35764,3.72678 -4.48148,5.19917 -8.01321,10.49836 -6.09742,9.1489 -8.90419,16.0417 -10.70211,26.28194 -1.0174,5.79472 -0.80516,13.85327 0.53425,20.28472 1.2141,5.82975 1.84349,7.67423 2.7128,7.95013 0.89165,0.283 1.5336,-0.25982 2.6935,-2.27756 1.08038,-1.8794 6.06648,-9.37351 8.51117,-12.79228 0.92707,-1.29647 2.86414,-3.69256 4.30459,-5.32466 1.44045,-1.6321 3.5222,-4.06386 4.62611,-5.4039 4.12692,-5.0097 18.75231,-18.76367 22.397,-21.06252 0.81046,-0.51119 2.00108,-1.38468 2.64583,-1.9411 1.33998,-1.15638 5.30325,-3.86605 6.10415,-4.17339 1.29378,-0.49647 0.30953,0.70772 -2.53687,3.10375 -1.69017,1.42275 -3.88505,3.38057 -4.8775,4.3507 -17.90452,17.50197 -21.02145,20.98746 -27.60406,30.86806 -3.18347,4.77842 -7.93321,14.02616 -8.51596,16.58055 -1.05105,4.60705 0.12605,5.46774 5.11504,3.74012 z"
         id="path3838"
         inkscape:connector-curvature="0" />
      <path
         style="fill:#cbdaaf;stroke-width:0.35277775"
         d="m 410.38134,231.29533 c -2.13783,-0.36202 -13.51282,-4.56116 -16.42326,-6.06272 -3.4874,-1.79923 -17.44525,-7.53404 -21.87925,-8.98944 -21.04057,-6.90629 -37.15045,-14.98442 -51.48869,-25.81849 -6.13698,-4.63714 -14.20569,-12.15497 -17.67366,-16.46702 -1.04707,-1.30192 -2.31868,-2.81004 -2.82579,-3.35139 -0.50712,-0.54133 -1.29785,-1.53987 -1.75718,-2.21897 -0.45934,-0.6791 -1.62985,-2.34597 -2.60113,-3.70416 -1.82109,-2.54651 -6.35381,-9.8296 -6.35381,-10.20917 0,-0.11769 -0.70999,-1.44065 -1.57775,-2.93991 -3.88902,-6.71913 -8.68842,-20.55622 -10.74545,-30.98007 -0.96419,-4.88594 -1.20197,-6.34553 -2.12122,-13.02085 -0.77581,-5.63372 -1.16703,-16.459633 -0.94339,-26.105554 0.25501,-10.99887 0.55477,-14.32453 2.70276,-29.986109 0.63612,-4.638114 2.03,-11.992292 2.54082,-13.405555 0.72867,-2.015924 1.56396,-2.001379 3.85867,0.06719 8.24137,7.429192 18.53668,14.998268 36.61649,26.920311 9.87762,6.513424 17.98012,11.974286 22.40935,15.103287 2.71638,1.918977 7.29892,5.139835 10.1834,7.157462 10.45,7.309531 18.38618,13.381158 25.77138,19.716578 1.92459,1.65101 4.46459,3.80968 5.64445,4.79704 5.06597,4.23942 15.23948,14.41856 18.68877,18.69909 0.79646,0.9884 2.4006,2.90996 3.56477,4.27013 4.3713,5.1073 10.08057,13.48132 13.30105,19.50918 4.24579,7.94697 7.90933,18.02319 9.10674,25.04722 0.21499,1.26118 0.63429,3.72181 0.93178,5.46806 0.64713,3.79872 0.71896,14.36747 0.12525,18.42826 -1.17284,8.02178 -3.02358,16.37772 -4.09363,18.48246 -0.57568,1.13233 -1.30557,1.45492 -2.03739,0.90046 -0.30253,-0.22921 -1.55803,-2.08362 -2.79001,-4.12091 -1.23198,-2.03729 -2.70645,-4.47317 -3.2766,-5.41306 -0.57015,-0.9399 -1.81585,-2.76552 -2.76823,-4.05695 -0.95237,-1.29142 -2.4131,-3.37992 -3.24606,-4.6411 -3.94858,-5.97851 -14.08504,-18.05912 -22.00514,-26.22566 -5.75573,-5.93482 -15.28815,-14.64096 -22.27155,-20.341 -4.8932,-3.99397 -14.20847,-10.57456 -17.94982,-12.68028 -1.45521,-0.81903 -2.88396,-1.69931 -3.175,-1.95617 -0.29104,-0.25685 -1.68669,-1.01758 -3.10145,-1.69049 -3.3307,-1.58421 -2.5614,-0.60521 1.69034,2.15111 5.88292,3.81378 18.62072,14.9428 31.52979,27.54757 4.41481,4.31075 12.79418,13.35585 14.78359,15.95814 9.93505,12.99577 15.39487,21.45895 19.19919,29.76039 3.6875,8.04653 4.93248,12.37457 3.9228,13.63715 -0.51595,0.64519 -2.10235,0.99485 -3.46593,0.76394 z m 2.75167,-0.8897 c 0.7035,-0.7035 0.48628,-2.32665 -0.83618,-6.24848 -4.07625,-12.08827 -15.34093,-29.50069 -28.42284,-43.93466 -11.52269,-12.71361 -33.33436,-32.3177 -40.74679,-36.62277 -2.76594,-1.60644 -6.47894,-4.96081 -6.01013,-5.42962 0.43482,-0.43482 9.50864,4.49467 15.23233,8.27518 16.92363,11.17813 33.47453,26.17484 49.48037,44.83397 5.87311,6.8467 14.94835,19.52763 19.29591,26.96241 2.1187,3.6232 2.82618,4.27888 3.54951,3.28967 1.04826,-1.43358 3.37451,-11.59842 4.23748,-18.51619 1.88538,-15.11357 -1.52443,-31.9231 -9.60044,-47.32784 -6.53216,-12.45989 -17.98986,-26.93087 -30.27908,-38.24221 C 372.03572,101.80018 357.7217,91.106573 320.31282,66.106028 299.76355,52.372849 292.27701,46.907468 283.35148,39.123247 c -1.24189,-1.083099 -2.46153,-1.969269 -2.71029,-1.969269 -0.66689,0 -1.10113,1.401625 -2.07663,6.702777 -0.92645,5.034555 -1.05973,5.903394 -2.19185,14.287499 -1.94086,14.373408 -2.48651,25.091505 -1.89026,37.129725 0.50612,10.218481 1.16037,15.671481 2.95225,24.606381 5.15623,25.71063 18.08061,48.38603 36.74955,64.47589 9.91805,8.54789 18.18214,14.01054 30.47595,20.1449 2.87087,1.4325 6.17226,3.0141 7.33642,3.51465 7.01243,3.01514 10.43602,4.33001 18.34445,7.04542 4.85069,1.66551 12.31194,4.56346 16.58055,6.43989 11.53111,5.06892 19.88861,8.37934 22.93055,9.08284 1.38077,0.31932 2.8638,0.23872 3.28084,-0.17832 z m 33.14347,-2.77992 c -0.70785,-0.41228 -0.78643,-1.80093 -0.23794,-4.20508 0.58275,-2.55439 5.33249,-11.80213 8.51596,-16.58055 6.58261,-9.8806 9.69954,-13.36609 27.60406,-30.86806 0.99245,-0.97013 3.18733,-2.92795 4.8775,-4.3507 2.8464,-2.39603 3.83065,-3.60022 2.53687,-3.10375 -0.8009,0.30734 -4.76417,3.01701 -6.10415,4.17339 -0.64475,0.55642 -1.83537,1.42991 -2.64583,1.9411 -3.64469,2.29885 -18.27008,16.05282 -22.397,21.06252 -1.10391,1.34004 -3.18566,3.7718 -4.62611,5.4039 -1.44045,1.6321 -3.37752,4.02819 -4.30459,5.32466 -2.44469,3.41877 -7.43079,10.91288 -8.51117,12.79228 -1.1599,2.01774 -1.80185,2.56056 -2.6935,2.27756 -0.86931,-0.2759 -1.4987,-2.12038 -2.7128,-7.95013 -1.33941,-6.43145 -1.55165,-14.49 -0.53425,-20.28472 1.79792,-10.24024 4.60469,-17.13304 10.70211,-26.28194 3.53173,-5.29919 4.65557,-6.77158 8.01321,-10.49836 5.04568,-5.60041 16.41824,-16.39737 20.47526,-19.43894 0.6791,-0.50913 2.12818,-1.6412 3.22017,-2.51572 1.09199,-0.87452 3.39386,-2.61486 5.11527,-3.86743 4.10614,-2.9878 7.99825,-5.82631 10.1854,-7.42817 0.97014,-0.71053 3.51014,-2.46054 5.64444,-3.88892 2.13431,-1.42838 4.51556,-3.02454 5.29167,-3.54703 0.77611,-0.52248 4.48398,-2.99125 8.23972,-5.48617 15.25065,-10.13092 20.10786,-13.641587 24.45736,-17.67717 2.56356,-2.378537 3.49296,-2.672165 4.34449,-1.372574 0.79494,1.213241 2.08192,8.049069 3.42983,18.217714 0.28717,2.1664 0.44541,7.90423 0.44753,16.22777 0.004,13.99992 -0.18737,16.11796 -2.28983,25.4 -1.79445,7.92225 -3.38281,12.57656 -6.32052,18.52083 -1.53424,3.10445 -3.22632,6.27945 -3.76017,7.05556 -0.53385,0.77611 -1.91376,2.80365 -3.06646,4.50565 -5.45199,8.05001 -15.7585,17.50974 -25.78076,23.66262 -6.74886,4.14327 -15.11247,7.94912 -25.34118,11.53146 -3.23643,1.13348 -6.34228,2.29764 -6.90187,2.58702 -0.5596,0.28938 -2.99161,1.31768 -5.40447,2.28512 -2.41285,0.96743 -6.13325,2.50289 -8.26756,3.41213 -7.34996,3.13118 -9.80047,3.77968 -11.20069,2.96413 z m 7.49652,-2.26944 c 2.23132,-0.84235 6.83507,-2.74265 10.23056,-4.22288 3.39549,-1.48023 8.87236,-3.64357 12.17083,-4.80742 20.43578,-7.21068 32.28702,-14.10495 43.59171,-25.35877 6.81611,-6.78543 10.70473,-12.1025 14.93404,-20.41986 2.71969,-5.34854 3.37445,-6.96078 4.98572,-12.27651 2.82413,-9.31709 4.00216,-16.47605 4.37255,-26.57241 0.41353,-11.27216 -0.13052,-20.07061 -1.93052,-31.22084 -1.20093,-7.4392 -1.75121,-9.348606 -2.69421,-9.348606 -0.18188,0 -1.15463,0.756225 -2.16166,1.680499 -4.39898,4.037478 -9.73785,7.932427 -24.05596,17.549927 -5.82084,3.90987 -12.72646,8.54971 -15.34584,10.31076 -2.61937,1.76106 -6.74687,4.65075 -9.17222,6.42154 -2.42534,1.77078 -5.44159,3.96255 -6.70277,4.87058 -10.75306,7.74206 -25.2917,21.43167 -31.87188,30.01061 -7.05244,9.19465 -11.92097,19.24297 -14.04707,28.99219 -0.69671,3.19476 -0.80701,4.69872 -0.8021,10.93611 0.005,6.50155 0.0998,7.65949 0.9377,11.46528 1.15178,5.23157 1.77281,7.02419 2.48159,7.16318 0.36437,0.0714 1.22978,-0.99581 2.57449,-3.175 3.98947,-6.46515 8.2792,-12.45187 11.95776,-16.68818 1.17938,-1.3582 2.93528,-3.42195 3.902,-4.58611 5.40895,-6.51367 16.95487,-17.27887 25.0777,-23.38198 7.35168,-5.52371 15.87487,-10.5686 16.61125,-9.83223 0.3743,0.37431 -0.97558,1.62358 -3.81824,3.53364 -5.8557,3.93462 -22.29339,19.00582 -28.73089,26.34245 -8.10254,9.23423 -14.93781,19.58322 -18.3337,27.7583 -2.15884,5.19706 -2.00864,7.09171 0.52487,6.62093 0.69154,-0.1285 3.08298,-0.92284 5.31429,-1.7652 z"
         id="path3836"
         inkscape:connector-curvature="0" />
      <path
         style="fill:#b7c996;stroke-width:0.35277775"
         d="m 409.85217,230.58395 c -3.04194,-0.7035 -11.39944,-4.01392 -22.93055,-9.08284 -4.26861,-1.87643 -11.72986,-4.77438 -16.58055,-6.43989 -7.90843,-2.71541 -11.33202,-4.03028 -18.34445,-7.04542 -3.00553,-1.29228 -12.02882,-5.82119 -15.45031,-7.75471 -13.35672,-7.548 -25.65,-17.67139 -34.90753,-28.74599 -11.65551,-13.94324 -20.24058,-32.10334 -24.07646,-50.92918 -1.09291,-5.36383 -1.93467,-10.58786 -1.90426,-11.81806 0.0168,-0.6791 0.24942,0.19403 0.51697,1.94028 1.25645,8.20054 3.53174,18.02044 5.55826,23.98889 7.02457,20.68856 18.51809,37.54821 34.99418,51.33237 14.35873,12.01274 30.58207,20.6603 53.6136,28.57778 4.65666,1.60081 12.27666,4.57526 16.93333,6.6099 18.35574,8.02017 23.83655,9.91858 25.37792,8.79026 0.62916,-0.46056 0.64951,-0.65206 0.25616,-2.40977 -2.84527,-12.714 -17.7681,-35.58767 -33.87133,-51.91786 -12.91677,-13.09882 -29.70453,-27.90671 -35.68358,-31.47523 -2.76401,-1.64966 -9.42454,-7.30668 -8.83443,-7.50339 1.75412,-0.5847 14.47335,6.66227 24.88582,14.17907 15.01579,10.83996 28.75165,23.81822 43.76558,41.35172 5.0573,5.90599 12.45887,16.28638 17.45934,24.48597 1.47909,2.42535 2.93744,4.45801 3.24079,4.51702 0.65157,0.12676 1.55723,-2.39209 2.89254,-8.04479 1.6604,-7.02892 2.14035,-11.30172 2.12,-18.87361 -0.0155,-5.76619 -0.1685,-7.89365 -0.83729,-11.64167 -1.71428,-9.60715 -4.17146,-16.98415 -8.51916,-25.57639 C 409.73946,137.75606 392.5911,119.0171 365.74035,98.323001 355.54123,90.462457 344.63837,82.843068 319.54107,66.03694 310.42176,59.930301 300.49989,53.128883 297.49246,50.922678 292.2689,47.090757 282.95201,39.571666 281.98769,38.409729 c -0.82563,-0.994819 -1.72376,-0.665004 -2.10424,0.772721 -0.39408,1.489131 -1.69086,8.686302 -2.14526,11.906249 -0.16429,1.164167 -0.61219,4.259791 -0.99535,6.879166 -0.38315,2.619375 -0.88608,6.82625 -1.11762,9.348611 -0.50143,5.462495 -0.61529,6.156427 -0.66961,4.080834 -0.0526,-2.011278 0.73729,-8.72201 2.43211,-20.661389 0.53891,-3.796516 2.04429,-11.618516 2.42719,-12.611804 0.20569,-0.533577 0.57751,-0.970139 0.82628,-0.970139 0.24876,0 1.4684,0.88617 2.71029,1.969269 8.92553,7.784221 16.41207,13.249602 36.96134,26.982781 37.40888,25.000545 51.7229,35.694152 68.72033,51.339062 12.28922,11.31134 23.74692,25.78232 30.27908,38.24221 8.07601,15.40474 11.48582,32.21427 9.60044,47.32784 -0.86297,6.91777 -3.18922,17.08261 -4.23748,18.51619 -0.72333,0.98921 -1.43081,0.33353 -3.54951,-3.28967 -13.96119,-23.87506 -39.78273,-51.53916 -63.83739,-68.39265 -8.4684,-5.93324 -19.51882,-12.33131 -20.17122,-11.67891 -0.46881,0.46881 3.24419,3.82318 6.01013,5.42962 7.41243,4.30507 29.2241,23.90916 40.74679,36.62277 13.08191,14.43397 24.34659,31.84639 28.42284,43.93466 1.32246,3.92183 1.53968,5.54498 0.83618,6.24848 -0.41704,0.41704 -1.90007,0.49764 -3.28084,0.17832 z m 36.88607,-3.78688 c -0.64593,-0.7783 -0.26642,-2.77696 1.1956,-6.29653 3.39589,-8.17508 10.23116,-18.52407 18.3337,-27.7583 6.4375,-7.33663 22.87519,-22.40783 28.73089,-26.34245 2.84266,-1.91006 4.19254,-3.15933 3.81824,-3.53364 -0.73638,-0.73637 -9.25957,4.30852 -16.61125,9.83223 -8.12283,6.10311 -19.66875,16.86831 -25.0777,23.38198 -0.96672,1.16416 -2.72262,3.22791 -3.902,4.58611 -3.67856,4.23631 -7.96829,10.22303 -11.95776,16.68818 -1.34471,2.17919 -2.21012,3.24645 -2.57449,3.175 -0.70878,-0.13899 -1.32981,-1.93161 -2.48159,-7.16318 -0.83788,-3.80579 -0.93258,-4.96373 -0.9377,-11.46528 -0.005,-6.23739 0.10539,-7.74135 0.8021,-10.93611 2.1261,-9.74922 6.99463,-19.79754 14.04707,-28.99219 6.58018,-8.57894 21.11882,-22.26855 31.87188,-30.01061 1.26118,-0.90803 4.27743,-3.0998 6.70277,-4.87058 2.42535,-1.77079 6.55285,-4.66048 9.17222,-6.42154 2.61938,-1.76105 9.525,-6.40089 15.34584,-10.31076 14.31811,-9.6175 19.65698,-13.512449 24.05596,-17.549927 1.00703,-0.924274 1.97978,-1.680499 2.16166,-1.680499 0.943,0 1.49328,1.909406 2.69421,9.348606 1.8,11.15023 2.34405,19.94868 1.93052,31.22084 -0.37039,10.09636 -1.54842,17.25532 -4.37255,26.57241 -1.61127,5.31573 -2.26603,6.92797 -4.98572,12.27651 -4.22931,8.31736 -8.11793,13.63443 -14.93404,20.41986 -11.30469,11.25382 -23.15593,18.14809 -43.59171,25.35877 -3.29847,1.16385 -8.77534,3.32719 -12.17083,4.80742 -7.12398,3.10564 -13.73242,5.65129 -15.54485,5.98808 -0.92979,0.17277 -1.37799,0.0883 -1.72047,-0.3244 z m 6.78508,-1.93558 c 2.56268,-0.95378 7.43753,-2.95771 10.83302,-4.45319 3.39548,-1.49548 8.44423,-3.49106 11.21944,-4.43463 17.39393,-5.9139 28.92223,-12.13276 39.53883,-21.32896 8.24215,-7.13943 14.28984,-14.82991 19.02271,-24.19005 3.80124,-7.51767 5.93812,-13.95241 7.83284,-23.5868 2.38334,-12.11897 2.3793,-28.75708 -0.0107,-44.15589 -0.77076,-4.965937 -1.70799,-9.809004 -1.98497,-10.257169 -0.31854,-0.515405 -1.43164,-0.260593 -2.09747,0.480155 -2.28784,2.545239 -10.89368,8.754164 -29.61555,21.366934 -7.76976,5.23443 -16.10414,10.94292 -18.52083,12.68553 -8.89477,6.41378 -9.99873,7.22916 -11.58992,8.56023 -0.89293,0.74696 -2.51859,2.05177 -3.61256,2.89958 -7.91904,6.13708 -19.33584,17.6291 -24.91883,25.08301 -9.7914,13.0726 -14.70161,27.08933 -14.09294,40.22984 0.29619,6.3944 2.21701,15.78 3.22948,15.78 0.26694,0 1.31271,-1.30969 2.32393,-2.91042 4.06029,-6.42727 8.06904,-11.99968 11.45852,-15.92802 1.35819,-1.57412 3.2587,-3.81349 4.22334,-4.97638 2.45971,-2.96521 13.07805,-13.50626 17.29777,-17.17187 3.75161,-3.25895 9.6931,-7.81021 13.75666,-10.53776 6.93786,-4.65683 13.93472,-8.05116 13.93472,-6.76003 0,0.60783 -3.87586,3.96678 -6.70277,5.80884 -3.48488,2.2708 -7.35807,5.55741 -15.69861,13.3211 -8.55439,7.96273 -13.62483,13.40231 -19.06905,20.45732 -6.57929,8.52589 -13.21013,20.83681 -13.21013,24.5261 0,1.0787 0.10818,1.22667 0.89684,1.22667 0.49327,0 2.99358,-0.78036 5.55625,-1.73414 z M 275.08483,104.76537 c -0.13627,-1.45412 -0.17721,-2.85499 -0.091,-3.11304 0.0862,-0.25806 0.2679,0.86149 0.40373,2.48788 0.13582,1.62638 0.17676,3.02725 0.091,3.11304 -0.0858,0.0858 -0.26746,-1.03376 -0.40372,-2.48788 z m -0.40432,-6.580841 c 0,-1.455208 0.0623,-2.050521 0.13838,-1.322916 0.0761,0.727604 0.0761,1.918229 0,2.645833 -0.0761,0.727604 -0.13838,0.132291 -0.13838,-1.322917 z m -0.32258,-11.288888 c 0,-3.977569 0.0514,-5.604757 0.11433,-3.615972 0.0629,1.988785 0.0629,5.243159 0,7.231944 -0.0629,1.988785 -0.11433,0.361597 -0.11433,-3.615972 z m 0.32258,-11.288888 c 0,-1.455208 0.0623,-2.050521 0.13838,-1.322917 0.0761,0.727604 0.0761,1.918229 0,2.645833 -0.0761,0.727605 -0.13838,0.132292 -0.13838,-1.322916 z"
         id="path3834"
         inkscape:connector-curvature="0" />
      <path
         style="fill:#92ad5f;stroke-width:0.35277775"
         d="m 410.20495,230.23626 c -3.14574,-0.70479 -9.78806,-3.30792 -21.87222,-8.57175 -5.23875,-2.28198 -13.335,-5.45829 -17.99166,-7.05847 -26.51797,-9.11243 -44.39239,-19.36528 -60.28033,-34.57707 -14.43654,-13.82216 -25.56728,-33.10556 -30.54452,-52.91667 -2.50501,-9.97083 -4.68738,-23.7508 -4.55343,-28.751382 0.0343,-1.28161 0.12975,-0.895787 0.34898,1.411111 2.79898,29.452721 10.31886,49.864071 25.69035,69.731851 3.31292,4.28197 13.98929,14.77363 18.89173,18.56489 13.94852,10.78695 29.21683,18.74164 49.17468,25.61965 9.29784,3.20429 12.96981,4.64225 20.43682,8.00313 10.51776,4.73402 19.47897,8.07908 21.64334,8.07908 1.28128,0 1.34932,-0.0566 1.34932,-1.12284 0,-3.82615 -5.66303,-15.7865 -12.19068,-25.74678 -7.52007,-11.47457 -14.18399,-19.5625 -24.54635,-29.79164 -14.36913,-14.18441 -25.90972,-24.30166 -31.83036,-27.90461 -1.52588,-0.92856 -3.66968,-2.48713 -4.76399,-3.46349 -1.09432,-0.97636 -2.8882,-2.4536 -3.9864,-3.28275 -2.16352,-1.63347 -2.70441,-2.43594 -1.86025,-2.75987 2.04898,-0.78627 18.11215,8.56107 29.43636,17.12935 22.82815,17.27253 45.90095,42.54518 58.56057,64.14395 1.04858,1.789 2.11774,3.33377 2.37593,3.43285 0.58846,0.22581 0.90746,-0.60616 2.21613,-5.77986 1.95181,-7.71623 2.58367,-12.58863 2.58788,-19.9557 0.004,-7.44369 -0.65416,-12.3901 -2.6531,-19.93194 -3.86378,-14.57769 -12.09983,-29.11579 -24.58204,-43.39166 -10.90337,-12.47016 -28.70804,-28.03989 -46.48271,-40.64793 -5.73695,-4.069379 -9.17908,-6.504276 -11.75666,-8.316457 -2.03493,-1.430665 -21.40169,-14.457848 -29.65488,-19.947564 -6.2708,-4.171096 -11.17978,-7.572124 -15.3062,-10.604393 -2.35013,-1.726974 -4.82859,-3.545071 -5.50769,-4.040208 -1.62824,-1.187179 -6.69854,-5.386084 -9.32053,-7.718697 -1.14873,-1.021944 -2.21392,-1.85808 -2.36709,-1.85808 -0.42215,0 -0.92279,2.109964 -1.8834,7.937499 -1.62703,9.870397 -2.35342,15.150676 -3.20301,23.283332 -0.56199,5.379603 -0.7914,6.865627 -0.68079,4.409722 0.19711,-4.376218 0.67156,-8.929327 1.63584,-15.69861 0.38695,-2.716389 0.83826,-5.891388 1.00292,-7.055555 0.45708,-3.231628 1.75284,-10.420818 2.14594,-11.906249 0.38048,-1.437725 1.27861,-1.76754 2.10424,-0.772721 0.96432,1.161937 10.28121,8.681028 15.50477,12.512949 3.00743,2.206205 12.9293,9.007623 22.04861,15.114262 25.0973,16.806128 36.00016,24.425517 46.19928,32.286061 26.85075,20.694099 43.99911,39.433059 53.78641,58.775409 4.3477,8.59224 6.80488,15.96924 8.51916,25.57639 0.66879,3.74802 0.8218,5.87548 0.83729,11.64167 0.0204,7.57189 -0.4596,11.84469 -2.12,18.87361 -1.33531,5.6527 -2.24097,8.17155 -2.89254,8.04479 -0.30335,-0.059 -1.7617,-2.09167 -3.24079,-4.51702 -5.00047,-8.19959 -12.40204,-18.57998 -17.45934,-24.48597 -15.01393,-17.5335 -28.74979,-30.51176 -43.76558,-41.35172 -10.41247,-7.5168 -23.1317,-14.76377 -24.88582,-14.17907 -0.59011,0.19671 6.07042,5.85373 8.83443,7.50339 5.97905,3.56852 22.76681,18.37641 35.68358,31.47523 16.10323,16.33019 31.02606,39.20386 33.87133,51.91786 0.39029,1.74401 0.3699,1.95144 -0.2354,2.39403 -0.66628,0.4872 -1.16496,0.53664 -2.46813,0.24466 z m 36.86528,-4.8673 c 0,-3.68929 6.63084,-16.00021 13.21013,-24.5261 5.44422,-7.05501 10.51466,-12.49459 19.06903,-20.45732 8.34054,-7.76369 12.21374,-11.0503 15.69861,-13.3211 2.82692,-1.84206 6.70278,-5.20101 6.70278,-5.80884 0,-1.29113 -6.99686,2.1032 -13.93472,6.76003 -4.06356,2.72755 -10.00506,7.27881 -13.75666,10.53776 -4.21973,3.66561 -14.83806,14.20666 -17.29777,17.17187 -0.96465,1.16289 -2.86515,3.40226 -4.22335,4.97638 -3.38947,3.92834 -7.39823,9.50075 -11.45851,15.92802 -1.01122,1.60073 -2.057,2.91042 -2.32394,2.91042 -1.01246,0 -2.93328,-9.3856 -3.22947,-15.78 -0.60867,-13.14051 4.30153,-27.15724 14.09294,-40.22984 5.58298,-7.45391 16.99979,-18.94593 24.91882,-25.08301 1.09398,-0.84781 2.71963,-2.15262 3.61256,-2.89958 1.59119,-1.33107 2.69515,-2.14645 11.58992,-8.56023 2.4167,-1.74261 10.75107,-7.4511 18.52083,-12.68553 18.72187,-12.61277 27.32772,-18.821695 29.61555,-21.366934 0.66583,-0.740748 1.77894,-0.99556 2.09748,-0.480155 0.27698,0.448165 1.21421,5.291232 1.98496,10.257169 2.39004,15.39881 2.39408,32.03692 0.0107,44.15589 -1.89472,9.63439 -4.03161,16.06913 -7.83285,23.5868 -6.91189,13.66956 -17.59791,24.91195 -32.00928,33.67586 -6.82822,4.1524 -16.11407,8.29419 -26.55225,11.84315 -2.7752,0.94357 -7.82395,2.93915 -11.21943,4.43463 -7.41127,3.26415 -15.15432,6.18733 -16.38927,6.18733 -0.78866,0 -0.89684,-0.14797 -0.89684,-1.22667 z m 5.93787,-1.1006 c 2.06994,-0.69791 4.87477,-1.80684 6.23296,-2.46428 3.25695,-1.57655 12.34629,-5.439 12.79935,-5.439 0.19577,0 1.48839,-0.4819 2.87249,-1.07089 1.3841,-0.58899 3.18666,-1.21306 4.00568,-1.38683 2.30855,-0.48978 9.75522,-3.61964 15.65702,-6.58069 4.70944,-2.36282 8.54284,-4.68834 14.7599,-8.95407 5.0025,-3.43238 14.06968,-12.34219 16.87259,-16.57974 0.70586,-1.06716 2.01186,-2.97216 2.90221,-4.23334 0.89036,-1.26118 2.21999,-3.48368 2.95476,-4.93888 5.13396,-10.16794 5.50007,-11.07688 7.22152,-17.92861 1.93924,-7.71867 2.28522,-9.45108 3.03263,-15.18536 0.79795,-6.122 0.97181,-18.37577 0.345,-24.31452 -1.06256,-10.06711 -2.57667,-20.139395 -3.20353,-21.310698 -0.42368,-0.791651 -0.46158,-0.771183 -3.99698,2.159081 -1.53977,1.276212 -4.03453,3.19351 -5.54391,4.260667 -1.50938,1.06715 -4.53433,3.21027 -6.72212,4.7625 -2.18779,1.55222 -5.90301,4.09222 -8.25605,5.64444 -2.35305,1.55222 -6.8789,4.60483 -10.05747,6.78356 -3.17856,2.17874 -7.60483,5.20855 -9.83615,6.73293 -2.23132,1.52437 -5.40632,3.75683 -7.05555,4.96102 -1.64924,1.2042 -4.03049,2.92854 -5.29167,3.83186 -1.26118,0.90332 -3.16618,2.37206 -4.23333,3.26386 -1.06716,0.89179 -2.41653,1.92018 -2.99861,2.2853 -1.071,0.6718 -4.82642,4.01743 -11.21155,9.98818 -7.25052,6.77996 -15.35751,16.44827 -18.8483,22.47829 -6.52254,11.26704 -9.53734,21.90492 -9.148,32.27916 0.19876,5.29591 1.61705,13.53678 2.4779,14.39763 0.47008,0.47008 0.63922,0.34595 1.51972,-1.11521 1.88429,-3.12688 5.46426,-8.5252 6.58587,-9.93096 0.61926,-0.77615 1.53946,-2.04618 2.04488,-2.82229 0.50543,-0.77611 2.09036,-2.68111 3.52207,-4.23334 1.43171,-1.55222 3.22902,-3.61597 3.99402,-4.58611 3.23859,-4.10705 18.26756,-18.42881 22.76755,-21.69619 1.06716,-0.77484 3.27382,-2.40081 4.9037,-3.61326 4.68853,-3.48775 8.37367,-5.79776 12.59469,-7.89492 3.11647,-1.54838 4.19735,-1.92284 5.29167,-1.83323 1.1106,0.0909 1.39668,0.26357 1.48675,0.89718 0.0849,0.59706 -0.2867,1.06079 -1.55468,1.94028 -0.91642,0.63563 -2.15723,1.60412 -2.75736,2.15219 -0.60014,0.54806 -2.15451,1.69049 -3.45417,2.53872 -2.43186,1.58718 -5.13423,3.69907 -7.54869,5.89928 -16.10027,14.6716 -20.45706,19.11691 -26.43022,26.96727 -1.06089,1.39431 -2.09117,2.63539 -2.2895,2.75797 -0.19833,0.12257 -0.68345,0.85569 -1.07804,1.62915 -0.39459,0.77347 -1.26587,2.12478 -1.93617,3.00293 -3.45806,4.5303 -9.01919,15.87956 -8.47538,17.29671 0.26936,0.70194 0.95281,0.59466 5.0825,-0.79774 z M 274.71524,86.895641 c 0,-4.947708 0.0496,-6.97177 0.11026,-4.497916 0.0607,2.473854 0.0607,6.521978 0,8.995832 -0.0606,2.473854 -0.11026,0.449792 -0.11026,-4.497916 z"
         id="path3832"
         inkscape:connector-curvature="0" />
      <path
         style="fill:#82b023;stroke-width:0.35277775"
         d="m 448.25385,224.64941 c -0.1248,-0.32522 0.10083,-1.40943 0.5014,-2.40935 0.40056,-0.99992 0.83697,-2.21491 0.96979,-2.69998 0.13281,-0.48507 0.93919,-2.01479 1.79194,-3.39938 0.85276,-1.38458 1.55047,-2.60639 1.55047,-2.71513 0,-0.60071 2.79646,-4.83971 3.94617,-5.98176 0.86073,-0.85501 1.3455,-1.6621 1.3455,-2.24014 0,-0.56492 0.46991,-1.37351 1.25374,-2.15733 0.68955,-0.68956 1.47824,-1.68789 1.75264,-2.21851 0.27439,-0.53062 1.06859,-1.49838 1.76487,-2.15056 0.69629,-0.6522 1.60742,-1.74143 2.02473,-2.42053 1.13932,-1.85402 9.40493,-10.37127 14.89244,-15.34583 1.28421,-1.16416 3.00186,-2.80723 3.817,-3.65126 0.81514,-0.84403 2.16211,-1.93381 2.99325,-2.42173 0.83115,-0.48792 1.74804,-1.34517 2.03754,-1.90499 0.28949,-0.55982 0.67572,-1.01785 0.85829,-1.01785 0.18257,0 1.13269,-0.71118 2.11138,-1.58039 0.97869,-0.86921 2.29367,-1.84148 2.92219,-2.1606 1.0553,-0.5358 3.5449,-2.41196 4.86645,-3.66734 0.30638,-0.29104 1.31095,-1.04924 2.23237,-1.68487 1.27718,-0.88106 1.64882,-1.34216 1.5638,-1.94028 -0.1898,-1.33518 -2.29026,-1.23776 -5.42834,0.25177 -1.45619,0.69119 -2.80271,1.25671 -2.99227,1.25671 -0.49872,0 -4.20814,2.10307 -5.44925,3.08948 -0.58209,0.46263 -1.562,1.18706 -2.1776,1.60986 -0.6156,0.42279 -2.17291,1.62411 -3.46069,2.66959 -1.28779,1.04548 -2.86284,2.16671 -3.50012,2.49161 -1.62514,0.82854 -3.82331,2.62673 -6.53227,5.34365 -1.27654,1.28029 -2.79724,2.60157 -3.37932,2.93617 -0.58209,0.3346 -1.50483,1.23128 -2.05055,1.99261 -0.54572,0.76134 -1.55622,1.81443 -2.24555,2.3402 -0.68933,0.52578 -2.2272,1.99061 -3.4175,3.25517 -1.1903,1.26456 -2.81515,2.93832 -3.61079,3.71946 -0.79563,0.78114 -2.06237,2.214 -2.81499,3.18414 -0.75261,0.97014 -2.78171,3.19264 -4.50911,4.93889 -1.80545,1.82515 -3.41099,3.80188 -3.77642,4.64949 -0.34963,0.81097 -0.97855,1.65799 -1.3976,1.88226 -0.41905,0.22427 -1.06615,1.09553 -1.43799,1.93614 -0.37184,0.84062 -1.24683,2.21154 -1.94441,3.04649 -0.69759,0.83496 -1.74353,2.52384 -2.32431,3.75307 -0.86157,1.82352 -1.19374,2.21505 -1.80436,2.12681 -0.89113,-0.12878 -1.20337,-1.1776 -2.3427,-7.86926 -0.58495,-3.43563 -0.746,-5.55959 -0.64196,-8.46667 0.19374,-5.41372 1.46947,-12.78403 2.57158,-14.85682 0.48323,-0.90883 0.8786,-1.94033 0.8786,-2.29221 0,-0.978 1.37196,-4.42791 1.95249,-4.90971 0.2831,-0.23495 0.74778,-1.21196 1.03263,-2.17114 0.72681,-2.44743 3.03237,-6.49551 5.75096,-10.09751 1.27317,-1.68688 2.60375,-3.5433 2.95687,-4.12538 1.22577,-2.02061 12.46965,-13.67419 17.52932,-18.16806 1.20152,-1.06715 2.84995,-2.62212 3.66319,-3.4555 0.81323,-0.83337 2.04138,-1.85124 2.72921,-2.26193 0.68784,-0.41068 1.56811,-1.02341 1.95617,-1.3616 0.38805,-0.3382 1.19589,-0.90783 1.79518,-1.26585 2.43762,-1.45623 4.22651,-2.73789 4.64609,-3.32871 0.43856,-0.61757 6.07285,-4.75185 8.40162,-6.16488 0.66058,-0.40082 1.55991,-1.05294 1.99852,-1.44916 0.43861,-0.39622 1.74997,-1.17687 2.91414,-1.73476 1.16417,-0.55789 2.67229,-1.52704 3.35139,-2.15367 1.53707,-1.41831 5.39591,-4.22811 7.41461,-5.39893 0.83634,-0.48507 1.97716,-1.31264 2.53516,-1.83905 1.16423,-1.09832 6.84378,-4.86373 7.3362,-4.86373 0.1806,0 0.84983,-0.44883 1.48717,-0.9974 0.63734,-0.54857 2.4288,-1.83578 3.98102,-2.86046 1.55223,-1.02469 3.29848,-2.30603 3.88056,-2.84744 0.58208,-0.5414 2.20158,-1.71754 3.59888,-2.613628 1.39731,-0.896091 2.64096,-1.791723 2.76368,-1.990291 0.12272,-0.198572 0.87023,-0.769528 1.66111,-1.268794 0.79089,-0.499265 1.82354,-1.365959 2.29477,-1.925983 0.47123,-0.560024 1.08889,-1.018226 1.37259,-1.018226 0.74114,0 1.42031,1.92332 1.65101,4.675477 0.10984,1.310329 0.3185,2.574635 0.4637,2.809565 0.14519,0.23493 0.3883,1.94096 0.54024,3.79119 0.15195,1.85022 0.52213,4.95155 0.82264,6.89182 0.3156,2.03774 0.63788,7.29872 0.76301,12.45573 0.17893,7.37416 0.11087,9.70723 -0.39104,13.40556 -1.076,7.92843 -1.67736,11.15716 -2.77714,14.91047 -0.31687,1.08141 -0.81997,3.12541 -1.118,4.5422 -0.52804,2.5102 -0.79329,3.24175 -2.50085,6.89715 -0.45319,0.97014 -1.04976,2.33272 -1.32573,3.02796 -0.27596,0.69524 -1.07214,2.01133 -1.76929,2.92464 -0.69715,0.91332 -1.44679,2.32624 -1.66587,3.13983 -0.21908,0.81359 -0.8555,1.99996 -1.41428,2.63637 -0.55878,0.63641 -1.2795,1.67091 -1.60161,2.29888 -0.3221,0.62797 -0.87082,1.50781 -1.21937,1.95519 -0.34855,0.44739 -0.98034,1.52942 -1.40397,2.40453 -0.45714,0.94432 -1.3219,1.95617 -2.12735,2.48919 -0.74641,0.49396 -1.44541,1.17628 -1.55332,1.51629 -0.24301,0.76565 -5.19581,5.7688 -8.68847,8.77678 -1.43172,1.23304 -4.42874,3.3546 -6.66006,4.71458 -2.23132,1.35997 -4.37445,2.76057 -4.7625,3.11244 -1.2695,1.15113 -10.07814,5.98248 -10.90739,5.98248 -0.16459,0 -1.34964,0.5326 -2.63344,1.18355 -1.28379,0.65095 -2.96917,1.387 -3.74528,1.63566 -0.77611,0.24867 -2.1599,0.82732 -3.07508,1.2859 -0.98372,0.49293 -2.28169,0.83161 -3.175,0.82848 -1.02745,-0.004 -2.30134,0.38888 -3.98048,1.2264 -1.35819,0.67745 -3.91771,1.78454 -5.68782,2.46021 -1.77011,0.67567 -3.75448,1.53715 -4.40972,1.91441 -0.65524,0.37725 -1.74697,0.8009 -2.42607,0.94144 -0.67909,0.14054 -1.86972,0.69981 -2.64583,1.24283 -0.77611,0.54302 -2.99861,1.46173 -4.93889,2.04159 -5.16158,1.54256 -5.77766,1.63751 -6.04832,0.9322 z"
         id="path3830"
         inkscape:connector-curvature="0" />
      <path
         style="fill:#789d36;stroke-width:0.35277775"
         d="m 407.20634,228.9074 c -4.33296,-1.53193 -12.17835,-4.73013 -17.70099,-7.21585 -7.46701,-3.36088 -11.13898,-4.79884 -20.43682,-8.00313 -19.95785,-6.87801 -35.22616,-14.8327 -49.17468,-25.61965 -4.90244,-3.79126 -15.57881,-14.28292 -18.89173,-18.56489 -12.51941,-16.18144 -19.57681,-32.20595 -23.4085,-53.1513 -3.47122,-18.974854 -3.58143,-36.315528 -0.37333,-58.737493 1.87454,-13.10146 3.05852,-19.402776 3.64566,-19.402776 0.15317,0 1.21836,0.836136 2.36709,1.85808 2.62199,2.332613 7.69229,6.531518 9.32053,7.718697 0.6791,0.495137 3.15756,2.313234 5.50769,4.040208 4.12642,3.032269 9.0354,6.433297 15.3062,10.604393 8.25319,5.489716 27.61995,18.516899 29.65488,19.947564 2.57758,1.812181 6.01971,4.247078 11.75666,8.316457 4.40134,3.121985 15.15194,11.33289 18.76371,14.33102 18.49927,15.35623 30.25172,27.79386 39.47919,41.7809 7.87052,11.93015 12.3714,23.13666 14.68795,36.57073 0.63212,3.66573 0.79005,5.93128 0.787,11.28888 -0.004,7.36707 -0.63607,12.23947 -2.58788,19.9557 -1.30867,5.1737 -1.62767,6.00567 -2.21613,5.77986 -0.25819,-0.0991 -1.32735,-1.64385 -2.37593,-3.43285 -12.65962,-21.59877 -35.73242,-46.87142 -58.56057,-64.14395 -11.32421,-8.56828 -27.38738,-17.91562 -29.43636,-17.12935 -0.84416,0.32393 -0.30327,1.1264 1.86025,2.75987 1.0982,0.82915 2.89208,2.30639 3.9864,3.28275 1.09431,0.97636 3.23811,2.53493 4.76399,3.46349 5.92064,3.60295 17.46123,13.7202 31.83036,27.90461 10.36236,10.22914 17.02628,18.31707 24.54635,29.79164 6.52765,9.96028 12.19068,21.92063 12.19068,25.74678 0,1.08992 -0.044,1.12207 -1.49931,1.09658 -0.82462,-0.0144 -2.53118,-0.39108 -3.79236,-0.83697 z m 4.66449,-0.72427 c -0.42805,-4.62216 -6.02429,-16.04376 -12.88141,-26.2902 -9.22353,-13.78251 -16.264,-21.77185 -32.76161,-37.17701 -9.96811,-9.30805 -12.38549,-11.46842 -15.6423,-13.97924 -1.35819,-1.0471 -3.13709,-2.47882 -3.95311,-3.18161 -0.81601,-0.70278 -2.48288,-1.8096 -3.70416,-2.45959 -1.22128,-0.64998 -3.01426,-1.92043 -3.98439,-2.82321 -0.97014,-0.90279 -2.71639,-2.32417 -3.88056,-3.15863 -3.13329,-2.24592 -4.1744,-3.84892 -2.83389,-4.36332 0.68201,-0.26171 3.41346,0.58896 5.8325,1.81644 4.00703,2.03327 11.88213,6.56764 13.58194,7.8203 0.97014,0.71492 2.47827,1.73152 3.35139,2.25909 2.03445,1.22928 4.08432,2.71747 9.91903,7.20111 13.35708,10.26415 24.167,20.7119 38.58791,37.29509 4.12631,4.745 13.92212,18.25073 16.94059,23.35641 0.66421,1.12349 1.62576,2.75164 2.13679,3.61811 0.85999,1.45817 0.96429,1.52733 1.40151,0.92939 0.63625,-0.87012 2.44878,-8.60344 3.37188,-14.38646 0.64159,-4.01941 0.7248,-5.69364 0.57538,-11.57806 -0.18408,-7.24975 -0.96525,-12.43509 -2.93563,-19.48662 -3.87113,-13.85385 -11.73902,-27.59087 -23.68541,-41.35377 -3.28343,-3.78268 -10.43491,-11.26302 -12.9411,-13.53619 -0.98853,-0.89662 -2.83915,-2.5865 -4.11247,-3.75529 -6.84899,-6.2867 -18.92588,-16.102733 -25.30879,-20.570836 -0.91114,-0.637815 -3.16476,-2.26115 -5.00802,-3.607413 -8.29003,-6.054785 -32.42874,-22.56079 -40.66219,-27.804736 -2.74132,-1.745964 -15.0168,-10.284759 -17.49644,-12.17048 -5.27705,-4.01309 -7.43969,-5.701972 -9.25112,-7.224529 -4.92601,-4.14045 -5.29699,-4.407816 -5.64005,-4.064758 -0.86954,0.869541 -3.90455,22.025185 -5.12827,35.746857 -0.90986,10.202287 -0.40476,23.868202 1.29085,34.924995 1.19,7.75985 3.89968,20.25768 4.91101,22.65104 0.18795,0.44478 1.391,3.58681 2.67345,6.98229 4.35686,11.53545 10.99854,22.68538 19.13696,32.12677 15.30004,17.7496 36.36629,31.13379 64.10052,40.7255 8.34819,2.88717 15.92245,5.80872 20.10833,7.75621 9.19393,4.27747 21.75141,9.07863 23.28334,8.90202 0.55657,-0.0642 0.68485,-0.30481 0.60754,-1.13967 z m 36.14014,-2.88102 c -0.12935,-0.12935 -0.23036,-0.48654 -0.22446,-0.79375 0.009,-0.46668 0.0709,-0.45512 0.37674,0.0703 0.28193,0.4844 0.6644,0.58744 1.66497,0.44858 1.04653,-0.14523 1.12757,-0.12002 0.41701,0.12974 -1.11797,0.39296 -1.93347,0.44594 -2.23426,0.14514 z m 0.83395,-3.82176 c 0,-0.19402 0.15389,-0.5909 0.34197,-0.88194 0.18809,-0.29104 0.34198,-0.37042 0.34198,-0.17639 0,0.19403 -0.15389,0.5909 -0.34198,0.88195 -0.18808,0.29104 -0.34197,0.37041 -0.34197,0.17638 z m 11.53679,-0.57294 c 0.2393,-0.24109 0.52396,-0.34949 0.63257,-0.24087 0.10862,0.10862 -0.0872,0.30588 -0.43509,0.43836 -0.50278,0.19144 -0.5433,0.15092 -0.19748,-0.19749 z m -21.75512,-3.27986 c -0.34129,-0.41123 -0.28632,-0.46746 0.30562,-0.31267 0.39696,0.10381 0.63479,0.32945 0.52851,0.50142 -0.25851,0.41827 -0.34696,0.39825 -0.83413,-0.18875 z m 35.25475,-2.16166 c 0,-0.31947 2.94435,-1.55481 3.70416,-1.55414 0.38806,3.5e-4 -0.24694,0.393 -1.41111,0.87256 -2.35135,0.96862 -2.29305,0.95129 -2.29305,0.68158 z m -21.49112,-1.21748 c 0.51428,-1.07986 0.67723,-1.28 0.67723,-0.83178 0,0.18928 -0.24688,0.6523 -0.54863,1.02894 -0.5173,0.64569 -0.52465,0.63443 -0.1286,-0.19716 z m -10.61166,-0.70556 c 0.20768,-0.38805 0.45698,-0.70555 0.55399,-0.70555 0.097,0 0.006,0.3175 -0.20121,0.70555 -0.20768,0.38806 -0.45698,0.70556 -0.55399,0.70556 -0.097,0 -0.006,-0.3175 0.20121,-0.70556 z m 0.70556,-1.19152 c 0,-0.0733 0.27781,-0.35107 0.61736,-0.61736 0.55952,-0.43881 0.572,-0.42634 0.13319,0.13319 -0.46086,0.58764 -0.75055,0.77452 -0.75055,0.48417 z m 46.11981,-2.38003 c 0.2393,-0.24109 0.52396,-0.34949 0.63257,-0.24087 0.10862,0.10862 -0.0872,0.30588 -0.43509,0.43836 -0.50278,0.19144 -0.5433,0.15092 -0.19748,-0.19749 z m -42.99425,-2.31783 c 0.44975,-0.8575 1.10777,-1.38551 1.10777,-0.88889 0,0.17541 -0.3406,0.62134 -0.75689,0.99096 -0.75163,0.66737 -0.75407,0.66666 -0.35088,-0.10207 z m 11.42957,-0.77653 c 0.5319,-0.63213 0.96709,-1.32236 0.96709,-1.53384 0,-0.21148 0.0939,-0.29064 0.2086,-0.17591 0.40154,0.40155 -0.24457,1.61531 -1.18945,2.23442 l -0.95334,0.62465 z m -8.91069,-2.44835 c 0,-0.24849 0.67469,-1.12433 1.49931,-1.9463 0.82461,-0.82198 1.08673,-1.01117 0.58247,-0.42044 -0.50425,0.59073 -1.17894,1.46657 -1.4993,1.94631 -0.32036,0.47973 -0.58248,0.66893 -0.58248,0.42043 z m 53.45595,-1.13267 c 0.13198,-0.21354 1.29494,-1.06074 2.58436,-1.88266 3.32457,-2.11918 3.3679,-2.14317 3.10612,-1.7196 -0.12609,0.20401 -1.51202,1.18534 -3.07984,2.18072 -1.56783,0.99539 -2.74261,1.63508 -2.61064,1.42154 z m -49.75178,-3.5114 c 0.35118,-0.38805 0.71789,-0.70555 0.81491,-0.70555 0.097,0 -0.11095,0.3175 -0.46214,0.70555 -0.35118,0.38806 -0.71789,0.70556 -0.8149,0.70556 -0.097,0 0.11094,-0.3175 0.46213,-0.70556 z m 11.81805,-1.94028 c 0.4557,-0.48506 0.90792,-0.88194 1.00494,-0.88194 0.097,0 -0.19646,0.39688 -0.65216,0.88194 -0.4557,0.48507 -0.90792,0.88195 -1.00493,0.88195 -0.097,0 0.19645,-0.39688 0.65215,-0.88195 z m 50.62361,-3.70416 c 0.35119,-0.38806 0.7179,-0.70556 0.81491,-0.70556 0.097,0 -0.11095,0.3175 -0.46213,0.70556 -0.35119,0.38805 -0.7179,0.70555 -0.81491,0.70555 -0.097,0 0.11094,-0.3175 0.46213,-0.70555 z m -45.86111,-1.76389 c 0.35119,-0.38806 0.7179,-0.70556 0.81491,-0.70556 0.097,0 -0.11094,0.3175 -0.46213,0.70556 -0.35119,0.38805 -0.7179,0.70555 -0.81491,0.70555 -0.097,0 0.11094,-0.3175 0.46213,-0.70555 z m 1.41111,-1.76389 c 0.35119,-0.38805 0.7179,-0.70555 0.81491,-0.70555 0.097,0 -0.11094,0.3175 -0.46213,0.70555 -0.35119,0.38806 -0.7179,0.70556 -0.81491,0.70556 -0.097,0 0.11095,-0.3175 0.46213,-0.70556 z m 48.50694,-0.13319 c 0,-0.0733 0.27782,-0.35107 0.61736,-0.61737 0.55953,-0.4388 0.57201,-0.42633 0.1332,0.1332 -0.46086,0.58764 -0.75056,0.77452 -0.75056,0.48417 z m 2.64584,-2.68903 c 0.35118,-0.38806 0.71789,-0.70556 0.81491,-0.70556 0.097,0 -0.11095,0.3175 -0.46214,0.70556 -0.35118,0.38805 -0.71789,0.70555 -0.8149,0.70555 -0.097,0 0.11094,-0.3175 0.46213,-0.70555 z m 1.09902,-1.56634 c 0.10722,-0.2794 0.61818,-0.7775 1.13546,-1.10688 0.93651,-0.59634 0.9361,-0.59417 -0.0956,0.508 -1.16052,1.23976 -1.32129,1.33235 -1.03984,0.59888 z m -83.41714,-0.0212 c -10e-4,-0.19403 0.21216,-0.9084 0.47368,-1.5875 0.26152,-0.6791 0.4804,-0.9966 0.48641,-0.70556 0.006,0.29104 -0.20714,1.00542 -0.47367,1.5875 -0.26653,0.58209 -0.48542,0.89959 -0.48642,0.70556 z m 40.16118,-4.23333 c 0.4557,-0.48507 0.90791,-0.88195 1.00493,-0.88195 0.097,0 -0.19646,0.39688 -0.65216,0.88195 -0.4557,0.48507 -0.90792,0.88194 -1.00493,0.88194 -0.097,0 0.19645,-0.39687 0.65216,-0.88194 z m 48.35905,-2.14423 c 0.30672,-0.3729 0.96495,-1.39257 1.46275,-2.26593 0.49778,-0.87336 1.26472,-1.90523 1.70429,-2.29305 0.43958,-0.38782 -0.0177,0.51424 -1.01611,2.00458 -0.99843,1.49034 -2.01632,2.82732 -2.26197,2.97106 -0.24564,0.14374 -0.19568,-0.0437 0.11104,-0.41666 z m -85.34209,-2.05566 c 0.429,-0.88301 0.83873,-1.54673 0.91052,-1.47495 0.21256,0.21256 -0.86267,2.56878 -1.29383,2.83525 -0.21818,0.13484 -0.0457,-0.4773 0.38331,-1.3603 z m 32.71837,-1.03412 c 0.51573,-0.64204 2.50078,-2.15387 2.50078,-1.90461 0,0.0777 -0.67469,0.67754 -1.49931,1.33287 -0.82462,0.65533 -1.27528,0.91262 -1.00147,0.57174 z m 12.53202,-2.31362 c 0.13123,-0.21235 0.56642,-0.56152 0.96709,-0.77595 0.52195,-0.27934 0.66083,-0.28042 0.48987,-0.004 -0.13124,0.21234 -0.56643,0.56152 -0.96709,0.77595 -0.52195,0.27934 -0.66083,0.28041 -0.48987,0.004 z m -8.79652,-0.74265 c 0.35119,-0.38806 0.71789,-0.70556 0.81491,-0.70556 0.097,0 -0.11095,0.3175 -0.46213,0.70556 -0.35119,0.38805 -0.7179,0.70555 -0.81491,0.70555 -0.097,0 0.11094,-0.3175 0.46213,-0.70555 z m 52.97301,-0.17639 c 0.24856,-1.29263 1.61798,-3.75588 2.46717,-4.43785 0.4755,-0.38185 0.44327,-0.2432 -0.13548,0.58287 -0.41768,0.59615 -1.15896,1.94552 -1.6473,2.99861 -0.59892,1.29153 -0.82167,1.57025 -0.68439,0.85637 z m -45.06452,-5.59627 c 0.46979,-0.57848 1.7929,-1.45316 1.7929,-1.18526 0,0.0674 -0.51594,0.50016 -1.14653,0.96179 -0.70947,0.51937 -0.95587,0.60456 -0.64637,0.22347 z m 3.3427,-2.26992 c 0.62935,-0.72337 4.88391,-3.25872 5.4297,-3.23563 0.13884,0.006 -0.62752,0.52181 -1.70302,1.14653 -1.0755,0.62471 -2.50425,1.52305 -3.175,1.99629 -1.11471,0.78649 -1.16213,0.79446 -0.55168,0.0928 z m 45.72242,0.0549 c 0,-0.18928 0.24688,-0.6523 0.54863,-1.02893 0.5173,-0.64569 0.52464,-0.63444 0.1286,0.19715 -0.51429,1.07987 -0.67723,1.28 -0.67723,0.83178 z m -80.08055,-7.71094 c 0.4557,-0.48507 0.90792,-0.88195 1.00493,-0.88195 0.097,0 -0.19646,0.39688 -0.65216,0.88195 -0.4557,0.48507 -0.90792,0.88194 -1.00493,0.88194 -0.097,0 0.19646,-0.39687 0.65216,-0.88194 z m 5.64444,-6.35 c 0.4557,-0.48507 0.90792,-0.88195 1.00493,-0.88195 0.097,0 -0.19645,0.39688 -0.65215,0.88195 -0.4557,0.48507 -0.90792,0.88194 -1.00494,0.88194 -0.097,0 0.19646,-0.39687 0.65216,-0.88194 z m 6.07702,-5.67043 c 0.33493,-0.35067 0.70571,-0.54082 0.82396,-0.42257 0.11825,0.11825 -0.15578,0.40516 -0.60896,0.63757 -0.7877,0.40397 -0.79716,0.39451 -0.215,-0.215 z m 75.08972,-5.64786 c 0.0169,-0.41096 0.10052,-0.49456 0.21313,-0.21313 0.10191,0.25466 0.0894,0.55893 -0.0278,0.67615 -0.11723,0.11723 -0.20061,-0.0911 -0.18529,-0.46302 z m -62.65975,-4.7107 c 0.1123,-0.18171 1.22942,-1.04707 2.48247,-1.92302 1.27392,-0.89053 2.09612,-1.30093 1.86506,-0.93095 -0.22728,0.36393 -0.99689,0.98973 -1.71025,1.39066 -0.71336,0.40093 -1.49584,0.96853 -1.73884,1.26133 -0.4774,0.57522 -1.23428,0.74538 -0.89844,0.20198 z m 10.42079,-7.56393 c 0,-0.0733 0.27781,-0.35106 0.61736,-0.61736 0.55952,-0.43881 0.572,-0.42633 0.13319,0.1332 -0.46086,0.58764 -0.75055,0.77451 -0.75055,0.48416 z m 2.46944,-1.72833 c 0,-0.0674 0.51594,-0.50015 1.14653,-0.96178 0.70947,-0.51938 0.95587,-0.60457 0.64637,-0.22347 -0.46979,0.57847 -1.7929,1.45316 -1.7929,1.18525 z m 5.1218,-3.60705 c 4.8793,-3.42965 6.87264,-4.76769 6.87264,-4.61328 0,0.0936 -0.7491,0.68558 -1.66466,1.31551 -0.91557,0.62992 -1.98713,1.49659 -2.38125,1.92592 -0.67006,0.72992 -3.79393,2.6071 -4.33855,2.6071 -0.13505,0 0.54528,-0.55587 1.51182,-1.23525 z m 45.38112,-4.76198 c 0,-0.48507 0.0801,-0.6835 0.17794,-0.44097 0.0979,0.24254 0.0979,0.63941 0,0.88195 -0.0979,0.24253 -0.17794,0.0441 -0.17794,-0.44098 z m -33.92237,-2.91985 c 0,-0.0674 0.51594,-0.50016 1.14653,-0.96179 0.70947,-0.51938 0.95587,-0.60457 0.64638,-0.22347 -0.4698,0.57848 -1.79291,1.45316 -1.79291,1.18526 z m 33.54174,-0.81371 c 0.0169,-0.41097 0.10052,-0.49456 0.21314,-0.21314 0.1019,0.25466 0.0894,0.55894 -0.0278,0.67616 -0.11722,0.11723 -0.2006,-0.0911 -0.18528,-0.46302 z m -0.32493,-3.32199 c 0,-0.48507 0.0801,-0.68351 0.17794,-0.44097 0.0979,0.24253 0.0979,0.63941 0,0.88194 -0.0979,0.24254 -0.17794,0.0441 -0.17794,-0.44097 z m -24.39736,-1.91545 c 0,-0.097 0.3175,-0.34632 0.70555,-0.554 0.38806,-0.20768 0.70556,-0.29822 0.70556,-0.20121 0,0.097 -0.3175,0.34631 -0.70556,0.55399 -0.38805,0.20768 -0.70555,0.29823 -0.70555,0.20122 z m 24.04459,-0.554 c 0,-0.48507 0.0801,-0.6835 0.17793,-0.44097 0.0979,0.24254 0.0979,0.63941 0,0.88195 -0.0979,0.24253 -0.17793,0.0441 -0.17793,-0.44098 z m -0.3124,-2.46944 c 0,-0.87313 0.0688,-1.23031 0.15288,-0.79375 0.0841,0.43656 0.0841,1.15094 0,1.5875 -0.0841,0.43656 -0.15288,0.0794 -0.15288,-0.79375 z m -1.12656,-7.614119 c 0.0169,-0.410968 0.10052,-0.494559 0.21313,-0.213138 0.10191,0.25466 0.0894,0.558934 -0.0278,0.676159 -0.11723,0.117224 -0.20061,-0.09114 -0.18529,-0.463021 z m -4.47109,-2.566465 c 0.71898,-0.808313 0.91546,-0.912961 0.91546,-0.48761 0,0.147356 -0.35719,0.487345 -0.79375,0.75553 -0.79093,0.485878 -0.79136,0.484925 -0.12171,-0.26792 z"
         id="path3828"
         inkscape:connector-curvature="0" />
      <path
         style="fill:#456c01;stroke-width:0.35277775"
         d="m 407.55912,228.39858 c -4.66661,-1.56493 -13.75517,-5.26819 -19.57917,-7.9778 -4.18588,-1.94749 -11.76014,-4.86904 -20.10833,-7.75621 -24.03649,-8.31287 -42.62171,-19.20049 -57.45161,-33.65639 -11.38222,-11.09516 -20.28177,-24.62294 -25.78587,-39.19588 -1.28245,-3.39548 -2.4855,-6.53751 -2.67345,-6.98229 -1.01133,-2.39336 -3.72101,-14.89119 -4.91101,-22.65104 -1.69561,-11.056793 -2.20071,-24.722708 -1.29085,-34.924995 1.22372,-13.721672 4.25873,-34.877316 5.12827,-35.746857 0.34306,-0.343058 0.71404,-0.07569 5.64005,4.064758 1.81143,1.522557 3.97407,3.211439 9.25112,7.224529 2.47964,1.885721 14.75512,10.424516 17.49644,12.17048 8.23345,5.243946 32.37216,21.749951 40.66219,27.804736 1.84326,1.346263 4.09688,2.969598 5.00802,3.607413 6.38291,4.468103 18.4598,14.284136 25.30879,20.570836 1.27332,1.16879 3.12394,2.85867 4.11247,3.75529 2.50619,2.27317 9.65767,9.75351 12.9411,13.53619 11.94639,13.7629 19.81428,27.49992 23.68541,41.35377 1.97038,7.05153 2.75155,12.23687 2.93563,19.48662 0.14942,5.88442 0.0662,7.55865 -0.57538,11.57806 -0.9231,5.78302 -2.73563,13.51634 -3.37188,14.38646 -0.43722,0.59794 -0.54152,0.52878 -1.40151,-0.92939 -0.51103,-0.86647 -1.47258,-2.49462 -2.13679,-3.61811 -3.01847,-5.10568 -12.81428,-18.61141 -16.94059,-23.35641 -11.65632,-13.40407 -21.85014,-23.63655 -31.92638,-32.04747 -4.55919,-3.80568 -13.96993,-10.87129 -16.58056,-12.44873 -0.87312,-0.52757 -2.38125,-1.54417 -3.35139,-2.25909 -1.69981,-1.25266 -9.57491,-5.78703 -13.58194,-7.8203 -2.41904,-1.22748 -5.15049,-2.07815 -5.8325,-1.81644 -1.34051,0.5144 -0.2994,2.1174 2.83389,4.36332 1.16417,0.83446 2.91042,2.25584 3.88056,3.15863 0.97013,0.90278 2.76311,2.17323 3.98439,2.82321 1.22128,0.64999 2.88815,1.75681 3.70416,2.45959 0.81602,0.70279 2.59492,2.13451 3.95311,3.18161 3.25681,2.51082 5.67419,4.67119 15.6423,13.97924 13.15775,12.28646 18.93112,18.45866 26.86291,28.7186 8.80338,11.38737 18.23234,28.83366 18.78011,34.74861 0.13292,1.43528 -0.5695,1.47038 -4.31171,0.21545 z"
         id="path3826"
         inkscape:connector-curvature="0" />
    </g>
  </g>
</svg>
